<svg width="32" height="33" viewBox="0 0 32 33" fill="none" xmlns="http://www.w3.org/2000/svg">
<rect y="0.5" width="32" height="32" rx="4" fill="#EBF6F2"/>
<path d="M16 8.75C11.4439 8.75 7.75 12.4439 7.75 17C7.75 21.5561 11.4439 25.25 16 25.25C20.5561 25.25 24.25 21.5561 24.25 17C24.25 12.4439 20.5561 8.75 16 8.75ZM19.8077 18.2692H16C15.8317 18.2692 15.6703 18.2024 15.5513 18.0834C15.4322 17.9643 15.3654 17.8029 15.3654 17.6346V11.9231C15.3654 11.7548 15.4322 11.5933 15.5513 11.4743C15.6703 11.3553 15.8317 11.2885 16 11.2885C16.1683 11.2885 16.3297 11.3553 16.4487 11.4743C16.5678 11.5933 16.6346 11.7548 16.6346 11.9231V17H19.8077C19.976 17 20.1374 17.0669 20.2564 17.1859C20.3754 17.3049 20.4423 17.4663 20.4423 17.6346C20.4423 17.8029 20.3754 17.9643 20.2564 18.0834C20.1374 18.2024 19.976 18.2692 19.8077 18.2692Z" fill="#8DD3BB"/>
</svg>
