<svg width="32" height="33" viewBox="0 0 32 33" fill="none" xmlns="http://www.w3.org/2000/svg">
<rect y="0.5" width="32" height="32" rx="4" fill="#EBF6F2"/>
<path d="M20.5222 8.75C20.8302 8.75 21.1255 8.87233 21.3433 9.09008C21.561 9.30783 21.6833 9.60317 21.6833 9.91111V25.0056H23.425C23.579 25.0056 23.7266 25.0667 23.8355 25.1756C23.9444 25.2845 24.0056 25.4321 24.0056 25.5861C24.0056 25.7401 23.9444 25.8878 23.8355 25.9966C23.7266 26.1055 23.579 26.1667 23.425 26.1667H8.33056C8.17658 26.1667 8.02892 26.1055 7.92004 25.9966C7.81117 25.8878 7.75 25.7401 7.75 25.5861C7.75 25.4321 7.81117 25.2845 7.92004 25.1756C8.02892 25.0667 8.17658 25.0056 8.33056 25.0056H10.0722V9.91111C10.0722 9.60317 10.1946 9.30783 10.4123 9.09008C10.6301 8.87233 10.9254 8.75 11.2333 8.75H20.5222ZM18.2 19.2C18.5079 19.2 18.8033 19.0777 19.021 18.8599C19.2388 18.6422 19.3611 18.3468 19.3611 18.0389C19.3611 17.7309 19.2388 17.4356 19.021 17.2179C18.8033 17.0001 18.5079 16.8778 18.2 16.8778C17.8921 16.8778 17.5967 17.0001 17.379 17.2179C17.1612 17.4356 17.0389 17.7309 17.0389 18.0389C17.0389 18.3468 17.1612 18.6422 17.379 18.8599C17.5967 19.0777 17.8921 19.2 18.2 19.2Z" fill="#8DD3BB"/>
</svg>
