<svg width="61" height="59" viewBox="0 0 61 59" fill="none" xmlns="http://www.w3.org/2000/svg">
<path d="M7.848 18.412H18.984V21.836H7.848V18.412ZM8.168 28.012H20.808V31.5H4.008V9.1H20.36V12.588H8.168V28.012ZM29.1575 26.22L28.9335 21.292L40.6775 9.1H45.3495L35.5895 19.468L33.2855 21.996L29.1575 26.22ZM25.4455 31.5V9.1H29.6055V31.5H25.4455ZM41.0615 31.5L32.4855 21.292L35.2375 18.252L45.9255 31.5H41.0615Z" fill="#112211"/>
<path opacity="0.6" d="M0.988 55.5L4.792 47.1H5.98L9.796 55.5H8.536L5.14 47.772H5.62L2.224 55.5H0.988ZM2.608 53.4L2.932 52.44H7.66L8.008 53.4H2.608ZM11.0491 55.5V47.1H14.8171C15.7851 47.1 16.5291 47.296 17.0491 47.688C17.5691 48.072 17.8291 48.6 17.8291 49.272C17.8291 49.728 17.7251 50.112 17.5171 50.424C17.3171 50.736 17.0451 50.976 16.7011 51.144C16.3571 51.312 15.9851 51.396 15.5851 51.396L15.8011 51.036C16.2811 51.036 16.7051 51.12 17.0731 51.288C17.4411 51.456 17.7331 51.704 17.9491 52.032C18.1651 52.352 18.2731 52.752 18.2731 53.232C18.2731 53.952 18.0011 54.512 17.4571 54.912C16.9211 55.304 16.1211 55.5 15.0571 55.5H11.0491ZM12.2491 54.528H15.0091C15.6731 54.528 16.1811 54.416 16.5331 54.192C16.8851 53.968 17.0611 53.616 17.0611 53.136C17.0611 52.648 16.8851 52.292 16.5331 52.068C16.1811 51.844 15.6731 51.732 15.0091 51.732H12.1411V50.76H14.7091C15.3171 50.76 15.7891 50.648 16.1251 50.424C16.4611 50.2 16.6291 49.864 16.6291 49.416C16.6291 48.968 16.4611 48.632 16.1251 48.408C15.7891 48.184 15.3171 48.072 14.7091 48.072H12.2491V54.528ZM23.8871 55.596C23.2471 55.596 22.6551 55.492 22.1111 55.284C21.5751 55.068 21.1071 54.768 20.7071 54.384C20.3151 53.992 20.0071 53.536 19.7831 53.016C19.5591 52.496 19.4471 51.924 19.4471 51.3C19.4471 50.676 19.5591 50.104 19.7831 49.584C20.0071 49.064 20.3191 48.612 20.7191 48.228C21.1191 47.836 21.5871 47.536 22.1231 47.328C22.6671 47.112 23.2591 47.004 23.8991 47.004C24.5471 47.004 25.1431 47.116 25.6871 47.34C26.2391 47.556 26.7071 47.88 27.0911 48.312L26.3111 49.068C25.9911 48.732 25.6311 48.484 25.2311 48.324C24.8311 48.156 24.4031 48.072 23.9471 48.072C23.4751 48.072 23.0351 48.152 22.6271 48.312C22.2271 48.472 21.8791 48.696 21.5831 48.984C21.2871 49.272 21.0551 49.616 20.8871 50.016C20.7271 50.408 20.6471 50.836 20.6471 51.3C20.6471 51.764 20.7271 52.196 20.8871 52.596C21.0551 52.988 21.2871 53.328 21.5831 53.616C21.8791 53.904 22.2271 54.128 22.6271 54.288C23.0351 54.448 23.4751 54.528 23.9471 54.528C24.4031 54.528 24.8311 54.448 25.2311 54.288C25.6311 54.12 25.9911 53.864 26.3111 53.52L27.0911 54.276C26.7071 54.708 26.2391 55.036 25.6871 55.26C25.1431 55.484 24.5431 55.596 23.8871 55.596ZM29.6522 55.5V47.58L30.1682 48.144H27.7562V47.1H30.8402V55.5H29.6522ZM32.5456 55.5V54.684L35.9656 51.384C36.2696 51.096 36.4936 50.844 36.6376 50.628C36.7896 50.404 36.8896 50.2 36.9376 50.016C36.9936 49.824 37.0216 49.64 37.0216 49.464C37.0216 49.032 36.8696 48.692 36.5656 48.444C36.2616 48.196 35.8176 48.072 35.2336 48.072C34.7856 48.072 34.3816 48.148 34.0216 48.3C33.6616 48.444 33.3496 48.672 33.0856 48.984L32.2696 48.276C32.5896 47.868 33.0176 47.556 33.5536 47.34C34.0976 47.116 34.6936 47.004 35.3416 47.004C35.9256 47.004 36.4336 47.1 36.8656 47.292C37.2976 47.476 37.6296 47.744 37.8616 48.096C38.1016 48.448 38.2216 48.864 38.2216 49.344C38.2216 49.616 38.1856 49.884 38.1136 50.148C38.0416 50.412 37.9056 50.692 37.7056 50.988C37.5056 51.284 37.2176 51.616 36.8416 51.984L33.7936 54.924L33.5056 54.456H38.5816V55.5H32.5456ZM42.1362 55.596C41.5442 55.596 40.9682 55.504 40.4082 55.32C39.8562 55.136 39.4042 54.888 39.0522 54.576L39.6042 53.628C39.8842 53.892 40.2482 54.108 40.6962 54.276C41.1442 54.444 41.6242 54.528 42.1362 54.528C42.7602 54.528 43.2442 54.396 43.5882 54.132C43.9402 53.86 44.1162 53.496 44.1162 53.04C44.1162 52.6 43.9482 52.248 43.6122 51.984C43.2842 51.712 42.7602 51.576 42.0402 51.576H41.3682V50.736L43.8642 47.664L44.0322 48.144H39.4362V47.1H44.9802V47.916L42.4962 50.976L41.8722 50.604H42.2682C43.2842 50.604 44.0442 50.832 44.5482 51.288C45.0602 51.744 45.3162 52.324 45.3162 53.028C45.3162 53.5 45.2002 53.932 44.9682 54.324C44.7362 54.716 44.3842 55.028 43.9122 55.26C43.4482 55.484 42.8562 55.596 42.1362 55.596ZM46.3154 53.436V52.596L50.6114 47.1H51.9074L47.6474 52.596L47.0354 52.404H53.7434V53.436H46.3154ZM50.9834 55.5V53.436L51.0194 52.404V50.58H52.1474V55.5H50.9834ZM57.163 55.596C56.571 55.596 55.995 55.504 55.435 55.32C54.883 55.136 54.431 54.888 54.079 54.576L54.631 53.628C54.911 53.892 55.275 54.108 55.723 54.276C56.171 54.444 56.647 54.528 57.151 54.528C57.791 54.528 58.283 54.392 58.627 54.12C58.971 53.848 59.143 53.484 59.143 53.028C59.143 52.716 59.067 52.444 58.915 52.212C58.763 51.98 58.499 51.804 58.123 51.684C57.755 51.556 57.247 51.492 56.599 51.492H54.691L55.135 47.1H59.875V48.144H55.579L56.203 47.556L55.855 51.024L55.231 50.448H56.851C57.691 50.448 58.367 50.556 58.879 50.772C59.391 50.988 59.763 51.288 59.995 51.672C60.227 52.048 60.343 52.484 60.343 52.98C60.343 53.46 60.227 53.9 59.995 54.3C59.763 54.692 59.411 55.008 58.939 55.248C58.475 55.48 57.883 55.596 57.163 55.596Z" fill="#112211"/>
</svg>
