<svg width="32" height="33" viewBox="0 0 32 33" fill="none" xmlns="http://www.w3.org/2000/svg">
<rect y="0.5" width="32" height="32" rx="4" fill="#EBF6F2"/>
<path d="M11.9568 10.9592C11.2418 10.2442 11.2418 9.07999 11.9568 8.36499C12.6718 7.64999 13.836 7.64999 14.551 8.36499C15.266 9.07999 15.266 10.2442 14.551 10.9592C13.8268 11.6833 12.6718 11.6833 11.9568 10.9592ZM10.4993 20.6667V13.3333C10.4993 12.8292 10.0868 12.4167 9.58268 12.4167C9.07852 12.4167 8.66602 12.8292 8.66602 13.3333V20.6667C8.66602 23.1967 10.7193 25.25 13.2493 25.25H17.8327C18.3368 25.25 18.7493 24.8375 18.7493 24.3333C18.7493 23.8292 18.3368 23.4167 17.8327 23.4167H13.2493C11.7277 23.4167 10.4993 22.1883 10.4993 20.6667ZM22.6727 23.7375L19.2168 20.2817C18.8777 19.9425 18.4102 19.75 17.9243 19.75H15.541V16.3767C16.5402 17.1925 17.9793 17.935 19.391 18.2283C20.0052 18.3567 20.5827 17.8983 20.5827 17.275C20.5827 16.7892 20.2252 16.395 19.7393 16.3125C18.4377 16.0925 17.0993 15.3867 16.3018 14.5067L15.0185 13.0858C14.8443 12.8933 14.6243 12.7375 14.386 12.6275C14.1202 12.4992 13.8177 12.4167 13.506 12.4167H13.4785C12.3418 12.4167 11.416 13.3425 11.416 14.4792V19.75C11.416 21.2717 12.6443 22.5 14.166 22.5H18.8135L21.3618 25.0483C21.7193 25.4058 22.3152 25.4058 22.6727 25.0483C23.0393 24.6908 23.0393 24.1042 22.6727 23.7375Z" fill="#8DD3BB"/>
</svg>
